<?xml version="1.0" encoding="UTF-8" standalone="no"?>
<!-- Created with Inkscape (http://www.inkscape.org/) -->

<svg
   width="58.208336mm"
   height="26.356491mm"
   viewBox="0 0 58.208336 26.356491"
   version="1.1"
   id="svg9561"
   inkscape:version="1.1.1 (c3084ef, 2021-09-22)"
   sodipodi:docname="default_no-background.svg"
   xmlns:inkscape="http://www.inkscape.org/namespaces/inkscape"
   xmlns:sodipodi="http://sodipodi.sourceforge.net/DTD/sodipodi-0.dtd"
   xmlns:xlink="http://www.w3.org/1999/xlink"
   xmlns="http://www.w3.org/2000/svg"
   xmlns:svg="http://www.w3.org/2000/svg">
  <sodipodi:namedview
     id="namedview9563"
     pagecolor="#ffffff"
     bordercolor="#666666"
     borderopacity="1.0"
     inkscape:pageshadow="2"
     inkscape:pageopacity="0.0"
     inkscape:pagecheckerboard="0"
     inkscape:document-units="mm"
     showgrid="false"
     inkscape:zoom="0.57905443"
     inkscape:cx="128.65803"
     inkscape:cy="238.31956"
     inkscape:window-width="1312"
     inkscape:window-height="872"
     inkscape:window-x="0"
     inkscape:window-y="0"
     inkscape:window-maximized="0"
     inkscape:current-layer="layer1" />
  <defs
     id="defs9558">
    <linearGradient
       data-v-fde0c5aa=""
       gradientTransform="rotate(25)"
       id="cfdad4ec-5d5c-4330-8e4d-f57b4012f157"
       x1="0"
       y1="0"
       x2="1"
       y2="0">
      <stop
         data-v-fde0c5aa=""
         offset="0%"
         stop-color="#4F7E48"
         stop-opacity="1"
         id="stop11" />
      <stop
         data-v-fde0c5aa=""
         offset="100%"
         stop-color="#CAE6A5"
         stop-opacity="1"
         id="stop13" />
    </linearGradient>
    <linearGradient
       inkscape:collect="always"
       xlink:href="#cfdad4ec-5d5c-4330-8e4d-f57b4012f157"
       id="linearGradient9552"
       gradientTransform="scale(0.94318157,1.0602412)"
       x1="14.910821"
       y1="4.0575671"
       x2="84.376144"
       y2="4.0575671"
       gradientUnits="userSpaceOnUse" />
    <linearGradient
       inkscape:collect="always"
       xlink:href="#cfdad4ec-5d5c-4330-8e4d-f57b4012f157"
       id="linearGradient9554"
       gradientTransform="scale(0.93667369,1.0676077)"
       x1="24.976681"
       y1="13.895554"
       x2="74.688766"
       y2="13.895554"
       gradientUnits="userSpaceOnUse" />
    <linearGradient
       inkscape:collect="always"
       xlink:href="#cfdad4ec-5d5c-4330-8e4d-f57b4012f157"
       id="linearGradient9624"
       gradientUnits="userSpaceOnUse"
       gradientTransform="scale(0.94318157,1.0602412)"
       x1="14.910821"
       y1="4.0575671"
       x2="84.376144"
       y2="4.0575671" />
  </defs>
  <g
     inkscape:label="Layer 1"
     inkscape:groupmode="layer"
     id="layer1"
     transform="translate(-70.961986,-85.517139)">
    <g
       data-v-fde0c5aa=""
       id="63e374b7-ed3d-435f-88a5-41bdd44f60f1"
       fill="#2d3826"
       transform="matrix(1.1067927,0,0,1.1067927,96.697022,84.425675)">
      <path
         d="m 5.71,7.1 v 0 q 0,-0.11 0.11,-0.11 v 0 h 0.2 v 0 q 0.11,0 0.11,0.11 v 0 6.86 0 q 0,1.45 -0.84,2.18 v 0 0 Q 4.45,16.86 2.76,16.8 v 0 0 q -0.11,0 -0.11,-0.11 v 0 l 0.01,-0.18 v 0 q 0,-0.12 0.11,-0.12 v 0 0 Q 4.28,16.44 5,15.82 v 0 0 Q 5.71,15.2 5.71,13.96 v 0 -0.98 0 q 0,-0.03 -0.02,-0.03 v 0 0 q -0.02,0 -0.03,0.01 v 0 0 Q 5.36,13.5 4.84,13.8 v 0 0 q -0.51,0.3 -1.21,0.3 v 0 0 q -0.93,0 -1.58,-0.5 v 0 0 Q 1.4,13.1 1.19,12.26 v 0 0 Q 1.04,11.7 1.04,10.51 v 0 0 q 0,-1.24 0.15,-1.8 v 0 0 Q 1.4,7.9 2.04,7.38 v 0 0 Q 2.69,6.87 3.61,6.87 v 0 0 q 0.7,0 1.23,0.3 v 0 0 q 0.52,0.29 0.82,0.82 v 0 0 q 0.01,0.02 0.03,0.02 v 0 0 q 0.02,0 0.02,-0.03 v 0 z m -0.05,4.97 v 0 Q 5.68,11.84 5.7,11.52 v 0 0 Q 5.71,11.2 5.71,10.5 v 0 0 Q 5.71,9.8 5.7,9.48 v 0 0 Q 5.68,9.16 5.66,8.92 v 0 0 Q 5.54,8.2 5.01,7.73 v 0 0 Q 4.48,7.27 3.67,7.27 v 0 0 q -0.8,0 -1.35,0.46 v 0 0 Q 1.76,8.19 1.58,8.92 v 0 0 q -0.12,0.5 -0.12,1.55 v 0 0 q 0,1.15 0.12,1.6 v 0 0 q 0.16,0.71 0.72,1.18 v 0 0 q 0.56,0.47 1.37,0.47 v 0 0 q 0.82,0 1.35,-0.48 v 0 0 q 0.52,-0.47 0.64,-1.17 z m 5.37,1.65 v 0 q 0.76,0 1.3,-0.35 v 0 0 q 0.55,-0.35 0.77,-0.94 v 0 l 0.03,-0.05 v 0 q 0.03,-0.05 0.07,-0.05 v 0 h 0.07 l 0.14,0.03 v 0 q 0.11,0.03 0.07,0.14 v 0 0 q -0.26,0.73 -0.91,1.17 v 0 0 q -0.66,0.44 -1.55,0.44 v 0 0 q -0.95,0 -1.61,-0.49 v 0 0 Q 8.76,13.12 8.54,12.29 v 0 0 q -0.08,-0.32 -0.1,-0.7 v 0 0 Q 8.41,11.2 8.41,10.47 v 0 0 q 0,-0.66 0.03,-1.04 v 0 0 Q 8.46,9.04 8.53,8.74 v 0 0 Q 8.72,7.9 9.39,7.38 v 0 0 q 0.66,-0.51 1.63,-0.51 v 0 0 q 1.01,0 1.68,0.53 v 0 0 q 0.67,0.52 0.85,1.41 v 0 0 q 0.06,0.25 0.07,0.63 v 0 0 q 0.02,0.39 0.02,1.03 v 0 0 q 0,0.11 -0.12,0.11 v 0 H 8.88 v 0 q -0.05,0 -0.05,0.05 v 0 0 q 0,0.49 0.02,0.87 v 0 0 q 0.01,0.39 0.05,0.57 v 0 0 q 0.14,0.74 0.71,1.2 v 0 0 q 0.57,0.45 1.42,0.45 z M 11.02,7.27 v 0 q -0.86,0 -1.42,0.45 v 0 0 Q 9.04,8.18 8.9,8.9 v 0 0 Q 8.83,9.24 8.83,10.18 v 0 0 q 0,0.04 0.05,0.04 v 0 h 4.29 v 0 q 0.05,0 0.05,-0.04 v 0 0 q 0,-0.95 -0.07,-1.26 v 0 0 Q 12.99,8.18 12.43,7.72 v 0 0 Q 11.86,7.27 11.02,7.27 Z m 7.57,-0.38 v 0 q 1.05,0 1.71,0.65 v 0 0 q 0.66,0.65 0.66,1.7 v 0 4.65 0 q 0,0.11 -0.11,0.11 v 0 h -0.2 v 0 q -0.11,0 -0.11,-0.11 v 0 -4.58 0 q 0,-0.9 -0.56,-1.46 v 0 0 Q 19.42,7.28 18.54,7.28 v 0 0 q -0.94,0 -1.52,0.55 v 0 0 q -0.57,0.56 -0.57,1.45 v 0 4.61 0 q 0,0.11 -0.11,0.11 v 0 h -0.2 v 0 q -0.11,0 -0.11,-0.11 v 0 -6.79 0 q 0,-0.11 0.11,-0.11 v 0 h 0.2 v 0 q 0.11,0 0.11,0.11 v 0 0.84 0 q 0,0.03 0.01,0.04 v 0 0 q 0.02,0.01 0.03,-0.01 v 0 0 q 0.31,-0.52 0.85,-0.8 v 0 0 q 0.54,-0.28 1.25,-0.28 z m 4.33,2.83 v 0 q -0.11,0 -0.11,-0.12 v 0 -0.16 0 q 0,-0.12 0.11,-0.12 v 0 h 3.92 v 0 q 0.11,0 0.11,0.12 v 0 0.16 0 q 0,0.12 -0.11,0.12 v 0 z M 29.04,14 v 0 q -0.12,0 -0.12,-0.11 v 0 -9.58 0 q 0,-0.11 0.12,-0.11 v 0 h 0.19 v 0 q 0.11,0 0.11,0.11 v 0 9.58 0 q 0,0.11 -0.11,0.11 v 0 z"
         id="path8" />
    </g>
    <g
       data-v-fde0c5aa=""
       id="1c384edb-8f65-4564-bf3c-9782c77daad2"
       stroke="none"
       fill="url(#cfdad4ec-5d5c-4330-8e4d-f57b4012f157)"
       transform="matrix(0.35786139,0,0,0.35786139,65.929162,83.977619)"
       style="fill:url(#linearGradient9552)">
      <path
         d="M 46.821,57.385 32.741,49.257 V 32.998 l 14.08,-8.129 14.079,8.129 v 16.258 z m -11.57,-9.578 11.571,6.68 11.571,-6.68 v -13.36 l -11.571,-6.68 -11.571,6.68 z M 47.077,15.338 a 5.524,5.524 0 0 1 -5.518,-5.517 5.525,5.525 0 0 1 5.518,-5.519 5.524,5.524 0 0 1 5.518,5.519 5.525,5.525 0 0 1 -5.518,5.517 m 0,-10.032 a 4.52,4.52 0 0 0 -4.515,4.515 4.52,4.52 0 0 0 4.515,4.514 4.52,4.52 0 0 0 4.514,-4.514 4.52,4.52 0 0 0 -4.514,-4.515 M 19.832,30.771 a 5.52,5.52 0 0 1 -4.774,-8.278 5.536,5.536 0 0 1 4.783,-2.76 c 0.963,0 1.916,0.256 2.754,0.74 a 5.526,5.526 0 0 1 2.02,7.538 5.537,5.537 0 0 1 -4.783,2.76 m 0.009,-10.034 c -1.61,0 -3.11,0.866 -3.914,2.258 a 4.486,4.486 0 0 0 -0.451,3.426 4.482,4.482 0 0 0 2.104,2.741 4.504,4.504 0 0 0 2.253,0.606 c 1.609,0 3.11,-0.865 3.914,-2.257 a 4.52,4.52 0 0 0 -3.906,-6.774 m -0.255,41.342 a 5.539,5.539 0 0 1 -4.784,-2.76 5.52,5.52 0 0 1 4.774,-8.278 5.534,5.534 0 0 1 4.783,2.76 c 0.738,1.276 0.933,2.763 0.551,4.187 -0.382,1.424 -1.294,2.613 -2.57,3.351 a 5.517,5.517 0 0 1 -2.754,0.74 m -0.01,-10.035 a 4.518,4.518 0 0 0 -3.904,6.773 4.53,4.53 0 0 0 3.914,2.258 4.5,4.5 0 0 0 2.252,-0.606 4.486,4.486 0 0 0 2.104,-2.741 4.486,4.486 0 0 0 -0.451,-3.426 4.534,4.534 0 0 0 -3.915,-2.258 m 26.99,25.908 c -3.043,0 -5.518,-2.475 -5.518,-5.518 0,-3.043 2.475,-5.518 5.518,-5.518 3.043,0 5.518,2.475 5.518,5.518 0,3.043 -2.475,5.518 -5.518,5.518 m 0,-10.032 a 4.52,4.52 0 0 0 -4.514,4.514 4.519,4.519 0 0 0 4.514,4.514 4.519,4.519 0 0 0 4.515,-4.514 4.52,4.52 0 0 0 -4.515,-4.514 m 27.236,-5.399 a 5.52,5.52 0 0 1 -2.755,-0.74 5.526,5.526 0 0 1 -2.02,-7.538 5.537,5.537 0 0 1 4.784,-2.76 c 0.963,0 1.916,0.256 2.754,0.74 a 5.526,5.526 0 0 1 2.019,7.538 5.536,5.536 0 0 1 -4.782,2.76 m 0.01,-10.034 a 4.53,4.53 0 0 0 -3.914,2.258 4.52,4.52 0 0 0 3.904,6.773 4.53,4.53 0 0 0 3.914,-2.258 4.52,4.52 0 0 0 -3.904,-6.773 m 0.255,-21.273 a 5.539,5.539 0 0 1 -4.784,-2.76 5.52,5.52 0 0 1 4.774,-8.278 c 1.968,0 3.8,1.057 4.783,2.76 a 5.478,5.478 0 0 1 0.551,4.187 5.485,5.485 0 0 1 -2.571,3.351 c -0.838,0.484 -1.79,0.74 -2.753,0.74 m -0.01,-10.035 a 4.518,4.518 0 0 0 -3.904,6.773 4.53,4.53 0 0 0 3.914,2.258 h 0.001 c 0.787,0 1.566,-0.209 2.252,-0.606 1.044,-0.603 1.791,-1.576 2.103,-2.741 0.312,-1.165 0.152,-2.381 -0.45,-3.426 a 4.536,4.536 0 0 0 -3.916,-2.258"
         id="path18"
         style="fill:url(#linearGradient9624)" />
      <path
         d="M 33.772,34.171 23.395,28.995 23.843,28.097 34.22,33.274 Z M 46.319,14.835 h 1.004 v 11.482 h -1.004 z m 13.567,19.325 -0.482,-0.88 10.074,-5.516 0.481,0.88 z m 9.317,20.762 -9.816,-5.962 0.521,-0.858 9.817,5.962 z m -22.884,1.013 h 1.004 v 11.973 h -1.004 z m -22.154,-1.446 -0.482,-0.88 10.074,-5.516 0.482,0.88 z"
         id="path20"
         style="fill:url(#linearGradient9554)" />
    </g>
    <g
       data-v-fde0c5aa=""
       id="cfd04cda-8594-4eaf-919a-9884f1ac2bc5"
       fill="#2d3826"
       transform="matrix(0.14097683,0,0,0.14097683,97.770551,105.37468)">
      <path
         d="m 5.11,2.1 c -2.79,0 -4.56,2.11 -4.56,4.75 0,2.63 1.7,4.74 4.53,4.74 1.68,0 2.77,-0.85 3.36,-1.75 v 1.64 H 9.41 V 6.55 H 5.05 V 7.5 h 3.39 c 0,1.94 -1.59,3.07 -3.27,3.07 -2.26,0 -3.57,-1.64 -3.57,-3.72 0,-2.09 1.34,-3.73 3.59,-3.73 1.42,0 2.43,0.62 2.99,1.61 H 9.32 C 8.64,3.18 7.1,2.1 5.11,2.1 Z M 25.07,3.22 V 2.21 h -6.81 v 9.27 h 6.81 V 10.47 H 19.31 V 7.35 h 5.15 V 6.33 H 19.31 V 3.22 Z M 40.71,2.21 v 7.8 l -5.72,-7.8 h -1.22 v 9.27 h 1.05 V 3.65 l 5.72,7.83 h 1.22 V 2.21 Z M 57.85,3.22 V 2.21 h -6.82 v 9.27 h 6.82 V 10.47 H 52.08 V 7.35 h 5.15 V 6.33 H 52.08 V 3.22 Z m 9.74,4.7 h 3.22 l 2.24,3.56 H 74.3 L 71.86,7.74 C 72.9,7.5 74.1,6.9 74.1,5.11 c 0,-1.76 -1.22,-2.9 -3.12,-2.9 h -4.44 v 9.27 h 1.05 z m 0,-4.71 h 3.26 c 1.32,0 2.2,0.72 2.2,1.9 0,1.44 -1.26,1.82 -2.25,1.82 h -3.21 z m 19.48,-1 h -1.32 l -3.93,9.27 h 1.16 l 1.13,-2.69 h 4.59 l 1.14,2.69 H 91 Z M 84.52,7.83 86.41,3.3 88.3,7.83 Z m 20.41,-5.62 h -7.52 v 1.01 h 3.24 v 8.26 h 1.05 V 3.22 h 3.23 z m 9.38,0 h -1.05 v 9.27 h 1.05 z M 127.69,2.1 c -2.81,0 -4.7,2.11 -4.7,4.75 0,2.63 1.89,4.74 4.7,4.74 2.82,0 4.71,-2.11 4.71,-4.74 0,-2.64 -1.89,-4.75 -4.71,-4.75 z m 0,8.47 c -2.25,0 -3.65,-1.64 -3.65,-3.72 0,-2.09 1.4,-3.73 3.65,-3.73 2.26,0 3.66,1.64 3.66,3.73 0,2.08 -1.4,3.72 -3.66,3.72 z m 20.33,-8.36 v 7.8 l -5.72,-7.8 h -1.22 v 9.27 h 1.05 V 3.65 l 5.72,7.83 h 1.22 V 2.21 Z m 20.3,0 v 9.27 h 6.11 v -1.01 h -5.06 V 2.21 Z M 189.6,3.22 V 2.21 h -6.82 v 9.27 h 6.82 v -1.01 h -5.77 V 7.35 h 5.16 V 6.33 h -5.16 V 3.22 Z m 12.85,-1.01 h -1.31 l -3.94,9.27 h 1.17 l 1.13,-2.69 h 4.59 l 1.14,2.69 h 1.16 z m -2.54,5.62 1.89,-4.53 1.89,4.53 z m 18.56,-5.62 h -3.91 v 9.27 h 3.91 c 2.21,0 4.26,-1.74 4.26,-4.63 0,-2.9 -2.05,-4.64 -4.26,-4.64 z m -0.04,8.28 h -2.82 V 3.21 h 2.82 c 1.97,0 3.25,1.65 3.25,3.64 0,1.98 -1.28,3.64 -3.25,3.64 z"
         id="path25" />
    </g>
  </g>
</svg>
