<svg data-v-fde0c5aa="" xmlns="http://www.w3.org/2000/svg" viewBox="0 0 300 300" class="iconLeftSlogan"><!----><defs data-v-fde0c5aa=""><!----></defs><rect data-v-fde0c5aa="" fill="#F2F6EF" x="0" y="0" width="300px" height="300px" class="logo-background-square"></rect><defs data-v-fde0c5aa=""><!----></defs><g data-v-fde0c5aa="" id="63e374b7-ed3d-435f-88a5-41bdd44f60f1" fill="#2D3826" transform="matrix(4.1831536293029785,0,0,4.1831536293029785,137.2662818182628,96.06723675100312)"><path d="M5.71 7.10L5.71 7.10Q5.71 6.99 5.82 6.99L5.82 6.99L6.02 6.99L6.02 6.99Q6.13 6.99 6.13 7.10L6.13 7.10L6.13 13.96L6.13 13.96Q6.13 15.41 5.29 16.14L5.29 16.14L5.29 16.14Q4.45 16.86 2.76 16.80L2.76 16.80L2.76 16.80Q2.65 16.80 2.65 16.69L2.65 16.69L2.66 16.51L2.66 16.51Q2.66 16.39 2.77 16.39L2.77 16.39L2.77 16.39Q4.28 16.44 5.00 15.82L5.00 15.82L5.00 15.82Q5.71 15.20 5.71 13.96L5.71 13.96L5.71 12.98L5.71 12.98Q5.71 12.95 5.69 12.95L5.69 12.95L5.69 12.95Q5.67 12.95 5.66 12.96L5.66 12.96L5.66 12.96Q5.36 13.50 4.84 13.80L4.84 13.80L4.84 13.80Q4.33 14.10 3.63 14.10L3.63 14.10L3.63 14.10Q2.70 14.10 2.05 13.60L2.05 13.60L2.05 13.60Q1.40 13.10 1.19 12.26L1.19 12.26L1.19 12.26Q1.04 11.70 1.04 10.51L1.04 10.51L1.04 10.51Q1.04 9.27 1.19 8.71L1.19 8.71L1.19 8.71Q1.40 7.90 2.04 7.38L2.04 7.38L2.04 7.38Q2.69 6.87 3.61 6.87L3.61 6.87L3.61 6.87Q4.31 6.87 4.84 7.17L4.84 7.17L4.84 7.17Q5.36 7.46 5.66 7.99L5.66 7.99L5.66 7.99Q5.67 8.01 5.69 8.01L5.69 8.01L5.69 8.01Q5.71 8.01 5.71 7.98L5.71 7.98L5.71 7.10ZM5.66 12.07L5.66 12.07Q5.68 11.84 5.70 11.52L5.70 11.52L5.70 11.52Q5.71 11.20 5.71 10.50L5.71 10.50L5.71 10.50Q5.71 9.80 5.70 9.48L5.70 9.48L5.70 9.48Q5.68 9.16 5.66 8.92L5.66 8.92L5.66 8.92Q5.54 8.20 5.01 7.73L5.01 7.73L5.01 7.73Q4.48 7.27 3.67 7.27L3.67 7.27L3.67 7.27Q2.87 7.27 2.32 7.73L2.32 7.73L2.32 7.73Q1.76 8.19 1.58 8.92L1.58 8.92L1.58 8.92Q1.46 9.42 1.46 10.47L1.46 10.47L1.46 10.47Q1.46 11.62 1.58 12.07L1.58 12.07L1.58 12.07Q1.74 12.78 2.30 13.25L2.30 13.25L2.30 13.25Q2.86 13.72 3.67 13.72L3.67 13.72L3.67 13.72Q4.49 13.72 5.02 13.24L5.02 13.24L5.02 13.24Q5.54 12.77 5.66 12.07L5.66 12.07ZM11.03 13.72L11.03 13.72Q11.79 13.72 12.33 13.37L12.33 13.37L12.33 13.37Q12.88 13.02 13.10 12.43L13.10 12.43L13.13 12.38L13.13 12.38Q13.16 12.33 13.20 12.33L13.20 12.33L13.27 12.33L13.41 12.36L13.41 12.36Q13.52 12.39 13.48 12.50L13.48 12.50L13.48 12.50Q13.22 13.23 12.57 13.67L12.57 13.67L12.57 13.67Q11.91 14.11 11.02 14.11L11.02 14.11L11.02 14.11Q10.07 14.11 9.41 13.62L9.41 13.62L9.41 13.62Q8.76 13.12 8.54 12.29L8.54 12.29L8.54 12.29Q8.46 11.97 8.44 11.59L8.44 11.59L8.44 11.59Q8.41 11.20 8.41 10.47L8.41 10.47L8.41 10.47Q8.41 9.81 8.44 9.43L8.44 9.43L8.44 9.43Q8.46 9.04 8.53 8.74L8.53 8.74L8.53 8.74Q8.72 7.90 9.39 7.38L9.39 7.38L9.39 7.38Q10.05 6.87 11.02 6.87L11.02 6.87L11.02 6.87Q12.03 6.87 12.70 7.40L12.70 7.40L12.70 7.40Q13.37 7.92 13.55 8.81L13.55 8.81L13.55 8.81Q13.61 9.06 13.62 9.44L13.62 9.44L13.62 9.44Q13.64 9.83 13.64 10.47L13.64 10.47L13.64 10.47Q13.64 10.58 13.52 10.58L13.52 10.58L8.88 10.58L8.88 10.58Q8.83 10.58 8.83 10.63L8.83 10.63L8.83 10.63Q8.83 11.12 8.85 11.50L8.85 11.50L8.85 11.50Q8.86 11.89 8.90 12.07L8.90 12.07L8.90 12.07Q9.04 12.81 9.61 13.27L9.61 13.27L9.61 13.27Q10.18 13.72 11.03 13.72L11.03 13.72ZM11.02 7.27L11.02 7.27Q10.16 7.27 9.60 7.72L9.60 7.72L9.60 7.72Q9.04 8.18 8.90 8.90L8.90 8.90L8.90 8.90Q8.83 9.24 8.83 10.18L8.83 10.18L8.83 10.18Q8.83 10.22 8.88 10.22L8.88 10.22L13.17 10.22L13.17 10.22Q13.22 10.22 13.22 10.18L13.22 10.18L13.22 10.18Q13.22 9.23 13.15 8.92L13.15 8.92L13.15 8.92Q12.99 8.18 12.43 7.72L12.43 7.72L12.43 7.72Q11.86 7.27 11.02 7.27L11.02 7.27ZM18.59 6.89L18.59 6.89Q19.64 6.89 20.30 7.54L20.30 7.54L20.30 7.54Q20.96 8.19 20.96 9.24L20.96 9.24L20.96 13.89L20.96 13.89Q20.96 14 20.85 14L20.85 14L20.65 14L20.65 14Q20.54 14 20.54 13.89L20.54 13.89L20.54 9.31L20.54 9.31Q20.54 8.41 19.98 7.85L19.98 7.85L19.98 7.85Q19.42 7.28 18.54 7.28L18.54 7.28L18.54 7.28Q17.60 7.28 17.02 7.83L17.02 7.83L17.02 7.83Q16.45 8.39 16.45 9.28L16.45 9.28L16.45 13.89L16.45 13.89Q16.45 14 16.34 14L16.34 14L16.14 14L16.14 14Q16.03 14 16.03 13.89L16.03 13.89L16.03 7.10L16.03 7.10Q16.03 6.99 16.14 6.99L16.14 6.99L16.34 6.99L16.34 6.99Q16.45 6.99 16.45 7.10L16.45 7.10L16.45 7.94L16.45 7.94Q16.45 7.97 16.46 7.98L16.46 7.98L16.46 7.98Q16.48 7.99 16.49 7.97L16.49 7.97L16.49 7.97Q16.80 7.45 17.34 7.17L17.34 7.17L17.34 7.17Q17.88 6.89 18.59 6.89L18.59 6.89ZM22.92 9.72L22.92 9.72Q22.81 9.72 22.81 9.60L22.81 9.60L22.81 9.44L22.81 9.44Q22.81 9.32 22.92 9.32L22.92 9.32L26.84 9.32L26.84 9.32Q26.95 9.32 26.95 9.44L26.95 9.44L26.95 9.60L26.95 9.60Q26.95 9.72 26.84 9.72L26.84 9.72L22.92 9.72ZM29.04 14L29.04 14Q28.92 14 28.92 13.89L28.92 13.89L28.92 4.31L28.92 4.31Q28.92 4.20 29.04 4.20L29.04 4.20L29.23 4.20L29.23 4.20Q29.34 4.20 29.34 4.31L29.34 4.31L29.34 13.89L29.34 13.89Q29.34 14 29.23 14L29.23 14L29.04 14Z"></path></g><defs data-v-fde0c5aa=""><linearGradient data-v-fde0c5aa="" gradientTransform="rotate(25)" id="cfdad4ec-5d5c-4330-8e4d-f57b4012f157" x1="0%" y1="0%" x2="100%" y2="0%"><stop data-v-fde0c5aa="" offset="0%" stop-color="#4F7E48" stop-opacity="1"></stop><stop data-v-fde0c5aa="" offset="100%" stop-color="#CAE6A5" stop-opacity="1"></stop></linearGradient></defs><g data-v-fde0c5aa="" id="1c384edb-8f65-4564-bf3c-9782c77daad2" stroke="none" fill="url(#cfdad4ec-5d5c-4330-8e4d-f57b4012f157)" transform="matrix(1.3525470495224,0,0,1.3525470495224,20.978302137906592,94.37379734422902)"><path d="M46.821 57.385l-14.08-8.128V32.998l14.08-8.129L60.9 32.998v16.258l-14.079 8.129zm-11.57-9.578l11.571 6.68 11.571-6.68v-13.36l-11.571-6.68-11.571 6.68v13.36zM47.077 15.338a5.524 5.524 0 0 1-5.518-5.517 5.525 5.525 0 0 1 5.518-5.519 5.524 5.524 0 0 1 5.518 5.519 5.525 5.525 0 0 1-5.518 5.517m0-10.032a4.52 4.52 0 0 0-4.515 4.515 4.52 4.52 0 0 0 4.515 4.514 4.52 4.52 0 0 0 4.514-4.514 4.52 4.52 0 0 0-4.514-4.515M19.832 30.771a5.52 5.52 0 0 1-4.774-8.278 5.536 5.536 0 0 1 4.783-2.76c.963 0 1.916.256 2.754.74a5.526 5.526 0 0 1 2.02 7.538 5.537 5.537 0 0 1-4.783 2.76m.009-10.034c-1.61 0-3.11.866-3.914 2.258a4.486 4.486 0 0 0-.451 3.426 4.482 4.482 0 0 0 2.104 2.741 4.504 4.504 0 0 0 2.253.606c1.609 0 3.11-.865 3.914-2.257a4.52 4.52 0 0 0-3.906-6.774M19.586 62.079a5.539 5.539 0 0 1-4.784-2.76 5.52 5.52 0 0 1 4.774-8.278 5.534 5.534 0 0 1 4.783 2.76c.738 1.276.933 2.763.551 4.187s-1.294 2.613-2.57 3.351a5.517 5.517 0 0 1-2.754.74m-.01-10.035a4.518 4.518 0 0 0-3.904 6.773 4.53 4.53 0 0 0 3.914 2.258 4.5 4.5 0 0 0 2.252-.606 4.486 4.486 0 0 0 2.104-2.741 4.486 4.486 0 0 0-.451-3.426 4.534 4.534 0 0 0-3.915-2.258M46.566 77.952c-3.043 0-5.518-2.475-5.518-5.518s2.475-5.518 5.518-5.518c3.043 0 5.518 2.475 5.518 5.518s-2.475 5.518-5.518 5.518m0-10.032a4.52 4.52 0 0 0-4.514 4.514 4.519 4.519 0 0 0 4.514 4.514 4.519 4.519 0 0 0 4.515-4.514 4.52 4.52 0 0 0-4.515-4.514M73.802 62.521a5.52 5.52 0 0 1-2.755-.74 5.526 5.526 0 0 1-2.02-7.538 5.537 5.537 0 0 1 4.784-2.76c.963 0 1.916.256 2.754.74a5.526 5.526 0 0 1 2.019 7.538 5.536 5.536 0 0 1-4.782 2.76m.01-10.034a4.53 4.53 0 0 0-3.914 2.258 4.52 4.52 0 0 0 3.904 6.773 4.53 4.53 0 0 0 3.914-2.258 4.52 4.52 0 0 0-3.904-6.773M74.067 31.214a5.539 5.539 0 0 1-4.784-2.76 5.52 5.52 0 0 1 4.774-8.278c1.968 0 3.8 1.057 4.783 2.76a5.478 5.478 0 0 1 .551 4.187 5.485 5.485 0 0 1-2.571 3.351c-.838.484-1.79.74-2.753.74m-.01-10.035a4.518 4.518 0 0 0-3.904 6.773 4.53 4.53 0 0 0 3.914 2.258h.001c.787 0 1.566-.209 2.252-.606 1.044-.603 1.791-1.576 2.103-2.741s.152-2.381-.45-3.426a4.536 4.536 0 0 0-3.916-2.258"></path><path d="M33.772 34.171l-10.377-5.176.448-.898 10.377 5.177zM46.319 14.835h1.004v11.482h-1.004zM59.886 34.16l-.482-.88 10.074-5.516.481.88zM69.203 54.922l-9.816-5.962.521-.858 9.817 5.962zM46.319 55.935h1.004v11.973h-1.004zM24.165 54.489l-.482-.88 10.074-5.516.482.88z"></path></g><defs data-v-fde0c5aa=""><!----></defs><g data-v-fde0c5aa="" id="cfd04cda-8594-4eaf-919a-9884f1ac2bc5" fill="#2D3826" transform="matrix(0.5328258275985718,0,0,0.5328258275985718,141.3237070099385,175.24458546565057)"><path d="M5.11 2.10C2.32 2.10 0.55 4.21 0.55 6.85C0.55 9.48 2.25 11.59 5.08 11.59C6.76 11.59 7.85 10.74 8.44 9.84L8.44 11.48L9.41 11.48L9.41 6.55L5.05 6.55L5.05 7.50L8.44 7.50C8.44 9.44 6.85 10.57 5.17 10.57C2.91 10.57 1.60 8.93 1.60 6.85C1.60 4.76 2.94 3.12 5.19 3.12C6.61 3.12 7.62 3.74 8.18 4.73L9.32 4.73C8.64 3.18 7.10 2.10 5.11 2.10ZM25.07 3.22L25.07 2.21L18.26 2.21L18.26 11.48L25.07 11.48L25.07 10.47L19.31 10.47L19.31 7.35L24.46 7.35L24.46 6.33L19.31 6.33L19.31 3.22ZM40.71 2.21L40.71 10.01L34.99 2.21L33.77 2.21L33.77 11.48L34.82 11.48L34.82 3.65L40.54 11.48L41.76 11.48L41.76 2.21ZM57.85 3.22L57.85 2.21L51.03 2.21L51.03 11.48L57.85 11.48L57.85 10.47L52.08 10.47L52.08 7.35L57.23 7.35L57.23 6.33L52.08 6.33L52.08 3.22ZM67.59 7.92L70.81 7.92L73.05 11.48L74.30 11.48L71.86 7.74C72.90 7.50 74.10 6.90 74.10 5.11C74.10 3.35 72.88 2.21 70.98 2.21L66.54 2.21L66.54 11.48L67.59 11.48ZM67.59 3.21L70.85 3.21C72.17 3.21 73.05 3.93 73.05 5.11C73.05 6.55 71.79 6.93 70.80 6.93L67.59 6.93ZM87.07 2.21L85.75 2.21L81.82 11.48L82.98 11.48L84.11 8.79L88.70 8.79L89.84 11.48L91 11.48ZM84.52 7.83L86.41 3.30L88.30 7.83ZM104.93 2.21L97.41 2.21L97.41 3.22L100.65 3.22L100.65 11.48L101.70 11.48L101.70 3.22L104.93 3.22ZM114.31 2.21L113.26 2.21L113.26 11.48L114.31 11.48ZM127.69 2.10C124.88 2.10 122.99 4.21 122.99 6.85C122.99 9.48 124.88 11.59 127.69 11.59C130.51 11.59 132.40 9.48 132.40 6.85C132.40 4.21 130.51 2.10 127.69 2.10ZM127.69 10.57C125.44 10.57 124.04 8.93 124.04 6.85C124.04 4.76 125.44 3.12 127.69 3.12C129.95 3.12 131.35 4.76 131.35 6.85C131.35 8.93 129.95 10.57 127.69 10.57ZM148.02 2.21L148.02 10.01L142.30 2.21L141.08 2.21L141.08 11.48L142.13 11.48L142.13 3.65L147.85 11.48L149.07 11.48L149.07 2.21ZM168.32 2.21L168.32 11.48L174.43 11.48L174.43 10.47L169.37 10.47L169.37 2.21ZM189.60 3.22L189.60 2.21L182.78 2.21L182.78 11.48L189.60 11.48L189.60 10.47L183.83 10.47L183.83 7.35L188.99 7.35L188.99 6.33L183.83 6.33L183.83 3.22ZM202.45 2.21L201.14 2.21L197.20 11.48L198.37 11.48L199.50 8.79L204.09 8.79L205.23 11.48L206.39 11.48ZM199.91 7.83L201.80 3.30L203.69 7.83ZM218.47 2.21L214.56 2.21L214.56 11.48L218.47 11.48C220.68 11.48 222.73 9.74 222.73 6.85C222.73 3.95 220.68 2.21 218.47 2.21ZM218.43 10.49L215.61 10.49L215.61 3.21L218.43 3.21C220.40 3.21 221.68 4.86 221.68 6.85C221.68 8.83 220.40 10.49 218.43 10.49Z"></path></g></svg>