<?xml version="1.0" encoding="UTF-8" standalone="no"?>
<!-- Created with Inkscape (http://www.inkscape.org/) -->

<svg
   width="23.44651mm"
   height="26.356491mm"
   viewBox="0 0 23.44651 26.356491"
   version="1.1"
   id="svg9325"
   inkscape:version="1.1.1 (c3084ef, 2021-09-22)"
   sodipodi:docname="icon.svg"
   xmlns:inkscape="http://www.inkscape.org/namespaces/inkscape"
   xmlns:sodipodi="http://sodipodi.sourceforge.net/DTD/sodipodi-0.dtd"
   xmlns:xlink="http://www.w3.org/1999/xlink"
   xmlns="http://www.w3.org/2000/svg"
   xmlns:svg="http://www.w3.org/2000/svg">
  <sodipodi:namedview
     id="namedview9327"
     pagecolor="#ffffff"
     bordercolor="#666666"
     borderopacity="1.0"
     inkscape:pageshadow="2"
     inkscape:pageopacity="0.0"
     inkscape:pagecheckerboard="0"
     inkscape:document-units="mm"
     showgrid="false"
     inkscape:zoom="0.57905443"
     inkscape:cx="52.672078"
     inkscape:cy="119.15978"
     inkscape:window-width="1312"
     inkscape:window-height="872"
     inkscape:window-x="0"
     inkscape:window-y="0"
     inkscape:window-maximized="0"
     inkscape:current-layer="layer1" />
  <defs
     id="defs9322">
    <linearGradient
       data-v-fde0c5aa=""
       gradientTransform="rotate(25)"
       id="cfdad4ec-5d5c-4330-8e4d-f57b4012f157"
       x1="0"
       y1="0"
       x2="1"
       y2="0">
      <stop
         data-v-fde0c5aa=""
         offset="0%"
         stop-color="#4F7E48"
         stop-opacity="1"
         id="stop11" />
      <stop
         data-v-fde0c5aa=""
         offset="100%"
         stop-color="#CAE6A5"
         stop-opacity="1"
         id="stop13" />
    </linearGradient>
    <linearGradient
       inkscape:collect="always"
       xlink:href="#cfdad4ec-5d5c-4330-8e4d-f57b4012f157"
       id="linearGradient9316"
       gradientTransform="scale(0.94318157,1.0602412)"
       x1="14.910821"
       y1="4.0575671"
       x2="84.376144"
       y2="4.0575671"
       gradientUnits="userSpaceOnUse" />
    <linearGradient
       inkscape:collect="always"
       xlink:href="#cfdad4ec-5d5c-4330-8e4d-f57b4012f157"
       id="linearGradient9318"
       gradientTransform="scale(0.93667369,1.0676077)"
       x1="24.976681"
       y1="13.895554"
       x2="74.688766"
       y2="13.895554"
       gradientUnits="userSpaceOnUse" />
    <linearGradient
       inkscape:collect="always"
       xlink:href="#cfdad4ec-5d5c-4330-8e4d-f57b4012f157"
       id="linearGradient9376"
       gradientUnits="userSpaceOnUse"
       gradientTransform="scale(0.94318157,1.0602412)"
       x1="14.910821"
       y1="4.0575671"
       x2="84.376144"
       y2="4.0575671" />
  </defs>
  <g
     inkscape:label="Layer 1"
     inkscape:groupmode="layer"
     id="layer1"
     transform="translate(-91.084438,-117.04483)">
    <g
       data-v-fde0c5aa=""
       id="1c384edb-8f65-4564-bf3c-9782c77daad2"
       stroke="none"
       fill="url(#cfdad4ec-5d5c-4330-8e4d-f57b4012f157)"
       transform="matrix(0.35786139,0,0,0.35786139,86.051614,115.50531)"
       style="fill:url(#linearGradient9316)">
      <path
         d="M 46.821,57.385 32.741,49.257 V 32.998 l 14.08,-8.129 14.079,8.129 v 16.258 z m -11.57,-9.578 11.571,6.68 11.571,-6.68 v -13.36 l -11.571,-6.68 -11.571,6.68 z M 47.077,15.338 a 5.524,5.524 0 0 1 -5.518,-5.517 5.525,5.525 0 0 1 5.518,-5.519 5.524,5.524 0 0 1 5.518,5.519 5.525,5.525 0 0 1 -5.518,5.517 m 0,-10.032 a 4.52,4.52 0 0 0 -4.515,4.515 4.52,4.52 0 0 0 4.515,4.514 4.52,4.52 0 0 0 4.514,-4.514 4.52,4.52 0 0 0 -4.514,-4.515 M 19.832,30.771 a 5.52,5.52 0 0 1 -4.774,-8.278 5.536,5.536 0 0 1 4.783,-2.76 c 0.963,0 1.916,0.256 2.754,0.74 a 5.526,5.526 0 0 1 2.02,7.538 5.537,5.537 0 0 1 -4.783,2.76 m 0.009,-10.034 c -1.61,0 -3.11,0.866 -3.914,2.258 a 4.486,4.486 0 0 0 -0.451,3.426 4.482,4.482 0 0 0 2.104,2.741 4.504,4.504 0 0 0 2.253,0.606 c 1.609,0 3.11,-0.865 3.914,-2.257 a 4.52,4.52 0 0 0 -3.906,-6.774 m -0.255,41.342 a 5.539,5.539 0 0 1 -4.784,-2.76 5.52,5.52 0 0 1 4.774,-8.278 5.534,5.534 0 0 1 4.783,2.76 c 0.738,1.276 0.933,2.763 0.551,4.187 -0.382,1.424 -1.294,2.613 -2.57,3.351 a 5.517,5.517 0 0 1 -2.754,0.74 m -0.01,-10.035 a 4.518,4.518 0 0 0 -3.904,6.773 4.53,4.53 0 0 0 3.914,2.258 4.5,4.5 0 0 0 2.252,-0.606 4.486,4.486 0 0 0 2.104,-2.741 4.486,4.486 0 0 0 -0.451,-3.426 4.534,4.534 0 0 0 -3.915,-2.258 m 26.99,25.908 c -3.043,0 -5.518,-2.475 -5.518,-5.518 0,-3.043 2.475,-5.518 5.518,-5.518 3.043,0 5.518,2.475 5.518,5.518 0,3.043 -2.475,5.518 -5.518,5.518 m 0,-10.032 a 4.52,4.52 0 0 0 -4.514,4.514 4.519,4.519 0 0 0 4.514,4.514 4.519,4.519 0 0 0 4.515,-4.514 4.52,4.52 0 0 0 -4.515,-4.514 m 27.236,-5.399 a 5.52,5.52 0 0 1 -2.755,-0.74 5.526,5.526 0 0 1 -2.02,-7.538 5.537,5.537 0 0 1 4.784,-2.76 c 0.963,0 1.916,0.256 2.754,0.74 a 5.526,5.526 0 0 1 2.019,7.538 5.536,5.536 0 0 1 -4.782,2.76 m 0.01,-10.034 a 4.53,4.53 0 0 0 -3.914,2.258 4.52,4.52 0 0 0 3.904,6.773 4.53,4.53 0 0 0 3.914,-2.258 4.52,4.52 0 0 0 -3.904,-6.773 m 0.255,-21.273 a 5.539,5.539 0 0 1 -4.784,-2.76 5.52,5.52 0 0 1 4.774,-8.278 c 1.968,0 3.8,1.057 4.783,2.76 a 5.478,5.478 0 0 1 0.551,4.187 5.485,5.485 0 0 1 -2.571,3.351 c -0.838,0.484 -1.79,0.74 -2.753,0.74 m -0.01,-10.035 a 4.518,4.518 0 0 0 -3.904,6.773 4.53,4.53 0 0 0 3.914,2.258 h 0.001 c 0.787,0 1.566,-0.209 2.252,-0.606 1.044,-0.603 1.791,-1.576 2.103,-2.741 0.312,-1.165 0.152,-2.381 -0.45,-3.426 a 4.536,4.536 0 0 0 -3.916,-2.258"
         id="path18"
         style="fill:url(#linearGradient9376)" />
      <path
         d="M 33.772,34.171 23.395,28.995 23.843,28.097 34.22,33.274 Z M 46.319,14.835 h 1.004 v 11.482 h -1.004 z m 13.567,19.325 -0.482,-0.88 10.074,-5.516 0.481,0.88 z m 9.317,20.762 -9.816,-5.962 0.521,-0.858 9.817,5.962 z m -22.884,1.013 h 1.004 v 11.973 h -1.004 z m -22.154,-1.446 -0.482,-0.88 10.074,-5.516 0.482,0.88 z"
         id="path20"
         style="fill:url(#linearGradient9318)" />
    </g>
  </g>
</svg>
