<svg data-v-423bf9ae="" xmlns="http://www.w3.org/2000/svg" viewBox="0 0 134.71255772062082 60" class="font"><!----><!----><!----><g data-v-423bf9ae="" id="8e79f37b-731b-4f06-b129-7eb6cf25b1f5" fill="white" transform="matrix(4.760161399841309,0,0,4.760161399841309,-4.9505720138549805,-19.9926815032959)"><path d="M5.71 7.10L5.71 7.10Q5.71 6.99 5.82 6.99L5.82 6.99L6.02 6.99L6.02 6.99Q6.13 6.99 6.13 7.10L6.13 7.10L6.13 13.96L6.13 13.96Q6.13 15.41 5.29 16.14L5.29 16.14L5.29 16.14Q4.45 16.86 2.76 16.80L2.76 16.80L2.76 16.80Q2.65 16.80 2.65 16.69L2.65 16.69L2.66 16.51L2.66 16.51Q2.66 16.39 2.77 16.39L2.77 16.39L2.77 16.39Q4.28 16.44 5.00 15.82L5.00 15.82L5.00 15.82Q5.71 15.20 5.71 13.96L5.71 13.96L5.71 12.98L5.71 12.98Q5.71 12.95 5.69 12.95L5.69 12.95L5.69 12.95Q5.67 12.95 5.66 12.96L5.66 12.96L5.66 12.96Q5.36 13.50 4.84 13.80L4.84 13.80L4.84 13.80Q4.33 14.10 3.63 14.10L3.63 14.10L3.63 14.10Q2.70 14.10 2.05 13.60L2.05 13.60L2.05 13.60Q1.40 13.10 1.19 12.26L1.19 12.26L1.19 12.26Q1.04 11.70 1.04 10.51L1.04 10.51L1.04 10.51Q1.04 9.27 1.19 8.71L1.19 8.71L1.19 8.71Q1.40 7.90 2.04 7.38L2.04 7.38L2.04 7.38Q2.69 6.87 3.61 6.87L3.61 6.87L3.61 6.87Q4.31 6.87 4.84 7.17L4.84 7.17L4.84 7.17Q5.36 7.46 5.66 7.99L5.66 7.99L5.66 7.99Q5.67 8.01 5.69 8.01L5.69 8.01L5.69 8.01Q5.71 8.01 5.71 7.98L5.71 7.98L5.71 7.10ZM5.66 12.07L5.66 12.07Q5.68 11.84 5.70 11.52L5.70 11.52L5.70 11.52Q5.71 11.20 5.71 10.50L5.71 10.50L5.71 10.50Q5.71 9.80 5.70 9.48L5.70 9.48L5.70 9.48Q5.68 9.16 5.66 8.92L5.66 8.92L5.66 8.92Q5.54 8.20 5.01 7.73L5.01 7.73L5.01 7.73Q4.48 7.27 3.67 7.27L3.67 7.27L3.67 7.27Q2.87 7.27 2.32 7.73L2.32 7.73L2.32 7.73Q1.76 8.19 1.58 8.92L1.58 8.92L1.58 8.92Q1.46 9.42 1.46 10.47L1.46 10.47L1.46 10.47Q1.46 11.62 1.58 12.07L1.58 12.07L1.58 12.07Q1.74 12.78 2.30 13.25L2.30 13.25L2.30 13.25Q2.86 13.72 3.67 13.72L3.67 13.72L3.67 13.72Q4.49 13.72 5.02 13.24L5.02 13.24L5.02 13.24Q5.54 12.77 5.66 12.07L5.66 12.07ZM11.03 13.72L11.03 13.72Q11.79 13.72 12.33 13.37L12.33 13.37L12.33 13.37Q12.88 13.02 13.10 12.43L13.10 12.43L13.13 12.38L13.13 12.38Q13.16 12.33 13.20 12.33L13.20 12.33L13.27 12.33L13.41 12.36L13.41 12.36Q13.52 12.39 13.48 12.50L13.48 12.50L13.48 12.50Q13.22 13.23 12.57 13.67L12.57 13.67L12.57 13.67Q11.91 14.11 11.02 14.11L11.02 14.11L11.02 14.11Q10.07 14.11 9.41 13.62L9.41 13.62L9.41 13.62Q8.76 13.12 8.54 12.29L8.54 12.29L8.54 12.29Q8.46 11.97 8.44 11.59L8.44 11.59L8.44 11.59Q8.41 11.20 8.41 10.47L8.41 10.47L8.41 10.47Q8.41 9.81 8.44 9.43L8.44 9.43L8.44 9.43Q8.46 9.04 8.53 8.74L8.53 8.74L8.53 8.74Q8.72 7.90 9.39 7.38L9.39 7.38L9.39 7.38Q10.05 6.87 11.02 6.87L11.02 6.87L11.02 6.87Q12.03 6.87 12.70 7.40L12.70 7.40L12.70 7.40Q13.37 7.92 13.55 8.81L13.55 8.81L13.55 8.81Q13.61 9.06 13.62 9.44L13.62 9.44L13.62 9.44Q13.64 9.83 13.64 10.47L13.64 10.47L13.64 10.47Q13.64 10.58 13.52 10.58L13.52 10.58L8.88 10.58L8.88 10.58Q8.83 10.58 8.83 10.63L8.83 10.63L8.83 10.63Q8.83 11.12 8.85 11.50L8.85 11.50L8.85 11.50Q8.86 11.89 8.90 12.07L8.90 12.07L8.90 12.07Q9.04 12.81 9.61 13.27L9.61 13.27L9.61 13.27Q10.18 13.72 11.03 13.72L11.03 13.72ZM11.02 7.27L11.02 7.27Q10.16 7.27 9.60 7.72L9.60 7.72L9.60 7.72Q9.04 8.18 8.90 8.90L8.90 8.90L8.90 8.90Q8.83 9.24 8.83 10.18L8.83 10.18L8.83 10.18Q8.83 10.22 8.88 10.22L8.88 10.22L13.17 10.22L13.17 10.22Q13.22 10.22 13.22 10.18L13.22 10.18L13.22 10.18Q13.22 9.23 13.15 8.92L13.15 8.92L13.15 8.92Q12.99 8.18 12.43 7.72L12.43 7.72L12.43 7.72Q11.86 7.27 11.02 7.27L11.02 7.27ZM18.59 6.89L18.59 6.89Q19.64 6.89 20.30 7.54L20.30 7.54L20.30 7.54Q20.96 8.19 20.96 9.24L20.96 9.24L20.96 13.89L20.96 13.89Q20.96 14 20.85 14L20.85 14L20.65 14L20.65 14Q20.54 14 20.54 13.89L20.54 13.89L20.54 9.31L20.54 9.31Q20.54 8.41 19.98 7.85L19.98 7.85L19.98 7.85Q19.42 7.28 18.54 7.28L18.54 7.28L18.54 7.28Q17.60 7.28 17.02 7.83L17.02 7.83L17.02 7.83Q16.45 8.39 16.45 9.28L16.45 9.28L16.45 13.89L16.45 13.89Q16.45 14 16.34 14L16.34 14L16.14 14L16.14 14Q16.03 14 16.03 13.89L16.03 13.89L16.03 7.10L16.03 7.10Q16.03 6.99 16.14 6.99L16.14 6.99L16.34 6.99L16.34 6.99Q16.45 6.99 16.45 7.10L16.45 7.10L16.45 7.94L16.45 7.94Q16.45 7.97 16.46 7.98L16.46 7.98L16.46 7.98Q16.48 7.99 16.49 7.97L16.49 7.97L16.49 7.97Q16.80 7.45 17.34 7.17L17.34 7.17L17.34 7.17Q17.88 6.89 18.59 6.89L18.59 6.89ZM22.92 9.72L22.92 9.72Q22.81 9.72 22.81 9.60L22.81 9.60L22.81 9.44L22.81 9.44Q22.81 9.32 22.92 9.32L22.92 9.32L26.84 9.32L26.84 9.32Q26.95 9.32 26.95 9.44L26.95 9.44L26.95 9.60L26.95 9.60Q26.95 9.72 26.84 9.72L26.84 9.72L22.92 9.72ZM29.04 14L29.04 14Q28.92 14 28.92 13.89L28.92 13.89L28.92 4.31L28.92 4.31Q28.92 4.20 29.04 4.20L29.04 4.20L29.23 4.20L29.23 4.20Q29.34 4.20 29.34 4.31L29.34 4.31L29.34 13.89L29.34 13.89Q29.34 14 29.23 14L29.23 14L29.04 14Z"></path></g><!----><!----></svg>