<?xml version="1.0" encoding="UTF-8" standalone="no"?>
<!-- Created with Inkscape (http://www.inkscape.org/) -->

<svg
   width="31.322233mm"
   height="13.950696mm"
   viewBox="0 0 31.322233 13.950696"
   version="1.1"
   id="svg9423"
   inkscape:version="1.1.1 (c3084ef, 2021-09-22)"
   sodipodi:docname="name.svg"
   xmlns:inkscape="http://www.inkscape.org/namespaces/inkscape"
   xmlns:sodipodi="http://sodipodi.sourceforge.net/DTD/sodipodi-0.dtd"
   xmlns="http://www.w3.org/2000/svg"
   xmlns:svg="http://www.w3.org/2000/svg">
  <sodipodi:namedview
     id="namedview9425"
     pagecolor="#ffffff"
     bordercolor="#666666"
     borderopacity="1.0"
     inkscape:pageshadow="2"
     inkscape:pageopacity="0.0"
     inkscape:pagecheckerboard="0"
     inkscape:document-units="mm"
     showgrid="false"
     inkscape:zoom="0.57905443"
     inkscape:cx="59.579891"
     inkscape:cy="25.9043"
     inkscape:window-width="1312"
     inkscape:window-height="872"
     inkscape:window-x="0"
     inkscape:window-y="0"
     inkscape:window-maximized="0"
     inkscape:current-layer="layer1" />
  <defs
     id="defs9420" />
  <g
     inkscape:label="Layer 1"
     inkscape:groupmode="layer"
     id="layer1"
     transform="translate(-89.202728,-141.52465)">
    <g
       data-v-fde0c5aa=""
       id="63e374b7-ed3d-435f-88a5-41bdd44f60f1"
       fill="#2d3826"
       transform="matrix(1.1067927,0,0,1.1067927,88.051664,136.87612)">
      <path
         d="m 5.71,7.1 v 0 q 0,-0.11 0.11,-0.11 v 0 h 0.2 v 0 q 0.11,0 0.11,0.11 v 0 6.86 0 q 0,1.45 -0.84,2.18 v 0 0 Q 4.45,16.86 2.76,16.8 v 0 0 q -0.11,0 -0.11,-0.11 v 0 l 0.01,-0.18 v 0 q 0,-0.12 0.11,-0.12 v 0 0 Q 4.28,16.44 5,15.82 v 0 0 Q 5.71,15.2 5.71,13.96 v 0 -0.98 0 q 0,-0.03 -0.02,-0.03 v 0 0 q -0.02,0 -0.03,0.01 v 0 0 Q 5.36,13.5 4.84,13.8 v 0 0 q -0.51,0.3 -1.21,0.3 v 0 0 q -0.93,0 -1.58,-0.5 v 0 0 Q 1.4,13.1 1.19,12.26 v 0 0 Q 1.04,11.7 1.04,10.51 v 0 0 q 0,-1.24 0.15,-1.8 v 0 0 Q 1.4,7.9 2.04,7.38 v 0 0 Q 2.69,6.87 3.61,6.87 v 0 0 q 0.7,0 1.23,0.3 v 0 0 q 0.52,0.29 0.82,0.82 v 0 0 q 0.01,0.02 0.03,0.02 v 0 0 q 0.02,0 0.02,-0.03 v 0 z m -0.05,4.97 v 0 Q 5.68,11.84 5.7,11.52 v 0 0 Q 5.71,11.2 5.71,10.5 v 0 0 Q 5.71,9.8 5.7,9.48 v 0 0 Q 5.68,9.16 5.66,8.92 v 0 0 Q 5.54,8.2 5.01,7.73 v 0 0 Q 4.48,7.27 3.67,7.27 v 0 0 q -0.8,0 -1.35,0.46 v 0 0 Q 1.76,8.19 1.58,8.92 v 0 0 q -0.12,0.5 -0.12,1.55 v 0 0 q 0,1.15 0.12,1.6 v 0 0 q 0.16,0.71 0.72,1.18 v 0 0 q 0.56,0.47 1.37,0.47 v 0 0 q 0.82,0 1.35,-0.48 v 0 0 q 0.52,-0.47 0.64,-1.17 z m 5.37,1.65 v 0 q 0.76,0 1.3,-0.35 v 0 0 q 0.55,-0.35 0.77,-0.94 v 0 l 0.03,-0.05 v 0 q 0.03,-0.05 0.07,-0.05 v 0 h 0.07 l 0.14,0.03 v 0 q 0.11,0.03 0.07,0.14 v 0 0 q -0.26,0.73 -0.91,1.17 v 0 0 q -0.66,0.44 -1.55,0.44 v 0 0 q -0.95,0 -1.61,-0.49 v 0 0 Q 8.76,13.12 8.54,12.29 v 0 0 q -0.08,-0.32 -0.1,-0.7 v 0 0 Q 8.41,11.2 8.41,10.47 v 0 0 q 0,-0.66 0.03,-1.04 v 0 0 Q 8.46,9.04 8.53,8.74 v 0 0 Q 8.72,7.9 9.39,7.38 v 0 0 q 0.66,-0.51 1.63,-0.51 v 0 0 q 1.01,0 1.68,0.53 v 0 0 q 0.67,0.52 0.85,1.41 v 0 0 q 0.06,0.25 0.07,0.63 v 0 0 q 0.02,0.39 0.02,1.03 v 0 0 q 0,0.11 -0.12,0.11 v 0 H 8.88 v 0 q -0.05,0 -0.05,0.05 v 0 0 q 0,0.49 0.02,0.87 v 0 0 q 0.01,0.39 0.05,0.57 v 0 0 q 0.14,0.74 0.71,1.2 v 0 0 q 0.57,0.45 1.42,0.45 z M 11.02,7.27 v 0 q -0.86,0 -1.42,0.45 v 0 0 Q 9.04,8.18 8.9,8.9 v 0 0 Q 8.83,9.24 8.83,10.18 v 0 0 q 0,0.04 0.05,0.04 v 0 h 4.29 v 0 q 0.05,0 0.05,-0.04 v 0 0 q 0,-0.95 -0.07,-1.26 v 0 0 Q 12.99,8.18 12.43,7.72 v 0 0 Q 11.86,7.27 11.02,7.27 Z m 7.57,-0.38 v 0 q 1.05,0 1.71,0.65 v 0 0 q 0.66,0.65 0.66,1.7 v 0 4.65 0 q 0,0.11 -0.11,0.11 v 0 h -0.2 v 0 q -0.11,0 -0.11,-0.11 v 0 -4.58 0 q 0,-0.9 -0.56,-1.46 v 0 0 Q 19.42,7.28 18.54,7.28 v 0 0 q -0.94,0 -1.52,0.55 v 0 0 q -0.57,0.56 -0.57,1.45 v 0 4.61 0 q 0,0.11 -0.11,0.11 v 0 h -0.2 v 0 q -0.11,0 -0.11,-0.11 v 0 -6.79 0 q 0,-0.11 0.11,-0.11 v 0 h 0.2 v 0 q 0.11,0 0.11,0.11 v 0 0.84 0 q 0,0.03 0.01,0.04 v 0 0 q 0.02,0.01 0.03,-0.01 v 0 0 q 0.31,-0.52 0.85,-0.8 v 0 0 q 0.54,-0.28 1.25,-0.28 z m 4.33,2.83 v 0 q -0.11,0 -0.11,-0.12 v 0 -0.16 0 q 0,-0.12 0.11,-0.12 v 0 h 3.92 v 0 q 0.11,0 0.11,0.12 v 0 0.16 0 q 0,0.12 -0.11,0.12 v 0 z M 29.04,14 v 0 q -0.12,0 -0.12,-0.11 v 0 -9.58 0 q 0,-0.11 0.12,-0.11 v 0 h 0.19 v 0 q 0.11,0 0.11,0.11 v 0 9.58 0 q 0,0.11 -0.11,0.11 v 0 z"
         id="path8" />
    </g>
  </g>
</svg>
