<?xml version="1.0" encoding="UTF-8" standalone="no"?>
<!-- Created with Inkscape (http://www.inkscape.org/) -->

<svg
   width="31.322231mm"
   height="1.3378701mm"
   viewBox="0 0 31.322231 1.3378701"
   version="1.1"
   id="svg9479"
   inkscape:version="1.1.1 (c3084ef, 2021-09-22)"
   sodipodi:docname="slogan.svg"
   xmlns:inkscape="http://www.inkscape.org/namespaces/inkscape"
   xmlns:sodipodi="http://sodipodi.sourceforge.net/DTD/sodipodi-0.dtd"
   xmlns="http://www.w3.org/2000/svg"
   xmlns:svg="http://www.w3.org/2000/svg">
  <sodipodi:namedview
     id="namedview9481"
     pagecolor="#ffffff"
     bordercolor="#666666"
     borderopacity="1.0"
     inkscape:pageshadow="2"
     inkscape:pageopacity="0.0"
     inkscape:pagecheckerboard="0"
     inkscape:document-units="mm"
     showgrid="false"
     inkscape:zoom="0.57905443"
     inkscape:cx="104.48068"
     inkscape:cy="257.31605"
     inkscape:window-width="1312"
     inkscape:window-height="872"
     inkscape:window-x="0"
     inkscape:window-y="0"
     inkscape:window-maximized="0"
     inkscape:current-layer="layer1" />
  <defs
     id="defs9476" />
  <g
     inkscape:label="Layer 1"
     inkscape:groupmode="layer"
     id="layer1"
     transform="translate(-77.094268,-80.206449)">
    <g
       data-v-fde0c5aa=""
       id="cfd04cda-8594-4eaf-919a-9884f1ac2bc5"
       fill="#2d3826"
       transform="matrix(0.14097683,0,0,0.14097683,77.016731,79.910398)">
      <path
         d="m 5.11,2.1 c -2.79,0 -4.56,2.11 -4.56,4.75 0,2.63 1.7,4.74 4.53,4.74 1.68,0 2.77,-0.85 3.36,-1.75 v 1.64 H 9.41 V 6.55 H 5.05 V 7.5 h 3.39 c 0,1.94 -1.59,3.07 -3.27,3.07 -2.26,0 -3.57,-1.64 -3.57,-3.72 0,-2.09 1.34,-3.73 3.59,-3.73 1.42,0 2.43,0.62 2.99,1.61 H 9.32 C 8.64,3.18 7.1,2.1 5.11,2.1 Z M 25.07,3.22 V 2.21 h -6.81 v 9.27 h 6.81 V 10.47 H 19.31 V 7.35 h 5.15 V 6.33 H 19.31 V 3.22 Z M 40.71,2.21 v 7.8 l -5.72,-7.8 h -1.22 v 9.27 h 1.05 V 3.65 l 5.72,7.83 h 1.22 V 2.21 Z M 57.85,3.22 V 2.21 h -6.82 v 9.27 h 6.82 V 10.47 H 52.08 V 7.35 h 5.15 V 6.33 H 52.08 V 3.22 Z m 9.74,4.7 h 3.22 l 2.24,3.56 H 74.3 L 71.86,7.74 C 72.9,7.5 74.1,6.9 74.1,5.11 c 0,-1.76 -1.22,-2.9 -3.12,-2.9 h -4.44 v 9.27 h 1.05 z m 0,-4.71 h 3.26 c 1.32,0 2.2,0.72 2.2,1.9 0,1.44 -1.26,1.82 -2.25,1.82 h -3.21 z m 19.48,-1 h -1.32 l -3.93,9.27 h 1.16 l 1.13,-2.69 h 4.59 l 1.14,2.69 H 91 Z M 84.52,7.83 86.41,3.3 88.3,7.83 Z m 20.41,-5.62 h -7.52 v 1.01 h 3.24 v 8.26 h 1.05 V 3.22 h 3.23 z m 9.38,0 h -1.05 v 9.27 h 1.05 z M 127.69,2.1 c -2.81,0 -4.7,2.11 -4.7,4.75 0,2.63 1.89,4.74 4.7,4.74 2.82,0 4.71,-2.11 4.71,-4.74 0,-2.64 -1.89,-4.75 -4.71,-4.75 z m 0,8.47 c -2.25,0 -3.65,-1.64 -3.65,-3.72 0,-2.09 1.4,-3.73 3.65,-3.73 2.26,0 3.66,1.64 3.66,3.73 0,2.08 -1.4,3.72 -3.66,3.72 z m 20.33,-8.36 v 7.8 l -5.72,-7.8 h -1.22 v 9.27 h 1.05 V 3.65 l 5.72,7.83 h 1.22 V 2.21 Z m 20.3,0 v 9.27 h 6.11 v -1.01 h -5.06 V 2.21 Z M 189.6,3.22 V 2.21 h -6.82 v 9.27 h 6.82 v -1.01 h -5.77 V 7.35 h 5.16 V 6.33 h -5.16 V 3.22 Z m 12.85,-1.01 h -1.31 l -3.94,9.27 h 1.17 l 1.13,-2.69 h 4.59 l 1.14,2.69 h 1.16 z m -2.54,5.62 1.89,-4.53 1.89,4.53 z m 18.56,-5.62 h -3.91 v 9.27 h 3.91 c 2.21,0 4.26,-1.74 4.26,-4.63 0,-2.9 -2.05,-4.64 -4.26,-4.64 z m -0.04,8.28 h -2.82 V 3.21 h 2.82 c 1.97,0 3.25,1.65 3.25,3.64 0,1.98 -1.28,3.64 -3.25,3.64 z"
         id="path25" />
    </g>
  </g>
</svg>
